<svg width="800" height="600" xmlns="http://www.w3.org/2000/svg">
  <!-- Background -->
  <rect width="800" height="600" fill="#eab308"/>

  <!-- Electrical panel -->
  <rect x="100" y="100" width="200" height="300" fill="#C0C0C0" stroke="#000" stroke-width="3"/>
  <rect x="110" y="110" width="180" height="280" fill="#333"/>

  <!-- Panel door (open) -->
  <rect x="320" y="100" width="80" height="300" fill="#C0C0C0" stroke="#000" stroke-width="3"/>

  <!-- Circuit breakers in panel -->
  <g>
    <!-- Row 1 -->
    <rect x="120" y="130" width="15" height="25" fill="#00FF00"/>
    <rect x="140" y="130" width="15" height="25" fill="#00FF00"/>
    <rect x="160" y="130" width="15" height="25" fill="#FF0000"/>
    <rect x="180" y="130" width="15" height="25" fill="#00FF00"/>
    <rect x="200" y="130" width="15" height="25" fill="#00FF00"/>
    <rect x="220" y="130" width="15" height="25" fill="#00FF00"/>
    <rect x="240" y="130" width="15" height="25" fill="#00FF00"/>
    <rect x="260" y="130" width="15" height="25" fill="#00FF00"/>

    <!-- Row 2 -->
    <rect x="120" y="170" width="15" height="25" fill="#00FF00"/>
    <rect x="140" y="170" width="15" height="25" fill="#00FF00"/>
    <rect x="160" y="170" width="15" height="25" fill="#00FF00"/>
    <rect x="180" y="170" width="15" height="25" fill="#00FF00"/>
    <rect x="200" y="170" width="15" height="25" fill="#00FF00"/>
    <rect x="220" y="170" width="15" height="25" fill="#00FF00"/>
    <rect x="240" y="170" width="15" height="25" fill="#00FF00"/>
    <rect x="260" y="170" width="15" height="25" fill="#00FF00"/>

    <!-- Row 3 -->
    <rect x="120" y="210" width="15" height="25" fill="#00FF00"/>
    <rect x="140" y="210" width="15" height="25" fill="#00FF00"/>
    <rect x="160" y="210" width="15" height="25" fill="#00FF00"/>
    <rect x="180" y="210" width="15" height="25" fill="#00FF00"/>
    <rect x="200" y="210" width="15" height="25" fill="#00FF00"/>
    <rect x="220" y="210" width="15" height="25" fill="#00FF00"/>
    <rect x="240" y="210" width="15" height="25" fill="#00FF00"/>
    <rect x="260" y="210" width="15" height="25" fill="#00FF00"/>
  </g>

  <!-- Multimeter -->
  <rect x="450" y="200" width="120" height="80" fill="#FFD700" stroke="#000" stroke-width="2"/>
  <rect x="460" y="210" width="100" height="40" fill="#000"/>
  <text x="510" y="235" font-family="Arial, sans-serif" font-size="16" fill="#00FF00" text-anchor="middle">240.5V</text>

  <!-- Multimeter probes -->
  <line x1="480" y1="280" x2="480" y2="350" stroke="#FF0000" stroke-width="4"/>
  <line x1="540" y1="280" x2="540" y2="350" stroke="#000" stroke-width="4"/>
  <circle cx="480" cy="350" r="5" fill="#FF0000"/>
  <circle cx="540" cy="350" r="5" fill="#000"/>

  <!-- Testing points on panel -->
  <circle cx="160" cy="142" r="8" fill="#FFD700" stroke="#000" stroke-width="2"/>
  <circle cx="180" cy="142" r="8" fill="#FFD700" stroke="#000" stroke-width="2"/>

  <!-- Tool box -->
  <rect x="600" y="350" width="150" height="80" fill="#FF4500" stroke="#000" stroke-width="2"/>
  <rect x="610" y="340" width="130" height="20" fill="#FF6347"/>

  <!-- Tools in box -->
  <rect x="620" y="360" width="4" height="30" fill="#C0C0C0"/>
  <rect x="630" y="360" width="4" height="35" fill="#C0C0C0"/>
  <rect x="640" y="360" width="4" height="25" fill="#C0C0C0"/>
  <rect x="650" y="360" width="4" height="40" fill="#C0C0C0"/>

  <!-- Wire strippers -->
  <rect x="680" y="365" width="40" height="8" fill="#FF0000"/>
  <rect x="720" y="365" width="20" height="8" fill="#C0C0C0"/>

  <!-- Voltage tester -->
  <rect x="500" y="100" width="8" height="60" fill="#FFD700"/>
  <circle cx="504" cy="80" r="10" fill="#FF0000"/>
  <line x1="504" y1="160" x2="160" y2="142" stroke="#FFD700" stroke-width="2" stroke-dasharray="5,5"/>

  <!-- Safety equipment -->
  <!-- Hard hat -->
  <ellipse cx="650" cy="120" rx="25" ry="15" fill="#FFD700"/>
  <!-- Safety gloves -->
  <rect x="700" y="110" width="30" height="40" fill="#FF4500" rx="5"/>
  <rect x="740" y="110" width="30" height="40" fill="#FF4500" rx="5"/>

  <!-- Checklist -->
  <rect x="50" y="450" width="200" height="120" fill="#FFFFFF" stroke="#000" stroke-width="2"/>
  <text x="60" y="470" font-family="Arial, sans-serif" font-size="14" fill="#000">Maintenance Checklist:</text>
  <text x="60" y="490" font-family="Arial, sans-serif" font-size="12" fill="#00AA00">✓ Voltage Check</text>
  <text x="60" y="505" font-family="Arial, sans-serif" font-size="12" fill="#00AA00">✓ Circuit Breaker Test</text>
  <text x="60" y="520" font-family="Arial, sans-serif" font-size="12" fill="#00AA00">✓ Connection Inspection</text>
  <text x="60" y="535" font-family="Arial, sans-serif" font-size="12" fill="#FF0000">⚠ Replace Breaker #3</text>
  <text x="60" y="550" font-family="Arial, sans-serif" font-size="12" fill="#000">□ Final Safety Check</text>

  <!-- Title -->
  <rect x="200" y="30" width="400" height="60" rx="10" fill="rgba(0,0,0,0.7)"/>
  <text x="400" y="70" font-family="Arial, sans-serif" font-size="32" fill="white" text-anchor="middle">Professional Maintenance Service</text>
</svg>
