<svg width="1200" height="630" xmlns="http://www.w3.org/2000/svg">
  <!-- Background -->
  <rect width="1200" height="630" fill="#1e40af"/>
  
  <!-- Gradient overlay -->
  <rect width="1200" height="630" fill="url(#grad1)"/>
  
  <!-- Decorative elements -->
  <circle cx="200" cy="100" r="80" fill="#eab308" opacity="0.3"/>
  <circle cx="1000" cy="500" r="120" fill="#16a34a" opacity="0.3"/>
  <circle cx="600" cy="50" r="40" fill="#dc2626" opacity="0.3"/>
  
  <!-- Logo and text container -->
  <rect x="150" y="150" width="900" height="330" rx="20" fill="rgba(255,255,255,0.1)"/>
  
  <!-- Title -->
  <text x="600" y="250" font-family="Arial, sans-serif" font-size="60" fill="white" text-anchor="middle" font-weight="bold">Rambo The Electrician</text>
  
  <!-- Tagline -->
  <text x="600" y="320" font-family="Arial, sans-serif" font-size="36" fill="#eab308" text-anchor="middle">Powering Your Home, Brightening Your House</text>
  
  <!-- Services -->
  <text x="600" y="400" font-family="Arial, sans-serif" font-size="28" fill="white" text-anchor="middle">Professional Electrical & Solar Services in South Africa</text>
  
  <!-- Lightning bolt icon -->
  <path d="M500,500 L550,450 L530,450 L580,400 L560,400 L620,330 L520,420 L540,420 L500,460 L520,460 Z" fill="#eab308"/>
  
  <!-- Solar panel icon -->
  <rect x="650" y="400" width="100" height="80" fill="#16a34a"/>
  <line x1="650" y1="420" x2="750" y2="420" stroke="white" stroke-width="2"/>
  <line x1="650" y1="440" x2="750" y2="440" stroke="white" stroke-width="2"/>
  <line x1="650" y1="460" x2="750" y2="460" stroke="white" stroke-width="2"/>
  <line x1="670" y1="400" x2="670" y2="480" stroke="white" stroke-width="2"/>
  <line x1="690" y1="400" x2="690" y2="480" stroke="white" stroke-width="2"/>
  <line x1="710" y1="400" x2="710" y2="480" stroke="white" stroke-width="2"/>
  <line x1="730" y1="400" x2="730" y2="480" stroke="white" stroke-width="2"/>
  
  <!-- Contact info -->
  <text x="600" y="550" font-family="Arial, sans-serif" font-size="24" fill="white" text-anchor="middle">📞 073 035 2691 | Cape Town, South Africa</text>
  
  <!-- Gradient definition -->
  <defs>
    <linearGradient id="grad1" x1="0%" y1="0%" x2="100%" y2="100%">
      <stop offset="0%" style="stop-color:#1e3a8a;stop-opacity:1" />
      <stop offset="100%" style="stop-color:#3b82f6;stop-opacity:1" />
    </linearGradient>
  </defs>
</svg>
