<svg width="800" height="600" xmlns="http://www.w3.org/2000/svg">
  <!-- Background -->
  <rect width="800" height="600" fill="#1e40af"/>

  <!-- Circuit Board Pattern -->
  <g stroke="#4CAF50" stroke-width="2" fill="none">
    <!-- Horizontal lines -->
    <line x1="50" y1="100" x2="750" y2="100"/>
    <line x1="50" y1="150" x2="750" y2="150"/>
    <line x1="50" y1="200" x2="750" y2="200"/>
    <line x1="50" y1="250" x2="750" y2="250"/>
    <line x1="50" y1="300" x2="750" y2="300"/>
    <line x1="50" y1="350" x2="750" y2="350"/>
    <line x1="50" y1="400" x2="750" y2="400"/>
    <line x1="50" y1="450" x2="750" y2="450"/>
    <line x1="50" y1="500" x2="750" y2="500"/>

    <!-- Vertical lines -->
    <line x1="100" y1="50" x2="100" y2="550"/>
    <line x1="200" y1="50" x2="200" y2="550"/>
    <line x1="300" y1="50" x2="300" y2="550"/>
    <line x1="400" y1="50" x2="400" y2="550"/>
    <line x1="500" y1="50" x2="500" y2="550"/>
    <line x1="600" y1="50" x2="600" y2="550"/>
    <line x1="700" y1="50" x2="700" y2="550"/>
  </g>

  <!-- Circuit Components -->
  <!-- Resistors -->
  <rect x="150" y="120" width="40" height="20" fill="#FFD700" stroke="#000" stroke-width="2"/>
  <rect x="350" y="220" width="40" height="20" fill="#FFD700" stroke="#000" stroke-width="2"/>
  <rect x="550" y="320" width="40" height="20" fill="#FFD700" stroke="#000" stroke-width="2"/>

  <!-- Capacitors -->
  <g stroke="#FFFFFF" stroke-width="3">
    <line x1="200" y1="350" x2="200" y2="370"/>
    <line x1="190" y1="370" x2="210" y2="370"/>
    <line x1="190" y1="380" x2="210" y2="380"/>
    <line x1="200" y1="380" x2="200" y2="400"/>

    <line x1="400" y1="150" x2="400" y2="170"/>
    <line x1="390" y1="170" x2="410" y2="170"/>
    <line x1="390" y1="180" x2="410" y2="180"/>
    <line x1="400" y1="180" x2="400" y2="200"/>

    <line x1="600" y1="450" x2="600" y2="470"/>
    <line x1="590" y1="470" x2="610" y2="470"/>
    <line x1="590" y1="480" x2="610" y2="480"/>
    <line x1="600" y1="480" x2="600" y2="500"/>
  </g>

  <!-- ICs/Chips -->
  <rect x="250" y="250" width="100" height="60" fill="#333" stroke="#000" stroke-width="2"/>
  <rect x="450" y="350" width="100" height="60" fill="#333" stroke="#000" stroke-width="2"/>

  <!-- Connection dots -->
  <circle cx="100" cy="100" r="5" fill="#FF5722"/>
  <circle cx="200" cy="200" r="5" fill="#FF5722"/>
  <circle cx="300" cy="300" r="5" fill="#FF5722"/>
  <circle cx="400" cy="400" r="5" fill="#FF5722"/>
  <circle cx="500" cy="500" r="5" fill="#FF5722"/>
  <circle cx="600" cy="200" r="5" fill="#FF5722"/>
  <circle cx="700" cy="300" r="5" fill="#FF5722"/>

  <!-- Title -->
  <rect x="200" y="30" width="400" height="60" rx="10" fill="rgba(0,0,0,0.7)"/>
  <text x="400" y="70" font-family="Arial, sans-serif" font-size="32" fill="white" text-anchor="middle">Professional Circuit Design</text>

  <!-- Description -->
  <rect x="150" y="520" width="500" height="50" rx="10" fill="rgba(0,0,0,0.7)"/>
  <text x="400" y="550" font-family="Arial, sans-serif" font-size="20" fill="white" text-anchor="middle">Custom electrical solutions for residential and commercial needs</text>
</svg>
